# xmcd
#
# Track frame offsets: 
#        150
#        13155
#        35747
#        51847
#        63540
#        79625
#        95972
#        113670
#        124145
#        151417
#
# Disc length: 2288 seconds
#
# Revision: 1
# Processed by: cddbd v1.5PL3 Copyright (c) Steve Scherf et al.
# Submitted via: ExactAudioCopy v0.90b4
#
DISCID=8608ee0a
DTITLE=John Michael Montgomery - Mr. Snowman
DYEAR=2003
DGENRE=Christmas
TTITLE0=Winter Wonderland
TTITLE1=Have Yourself A Merry Little Christmas
TTITLE2=White Christmas
TTITLE3=Santa Claus Is Coming To Town
TTITLE4=December 1943
TTITLE5=My Christmas Wish
TTITLE6=The Christmas Song (Chestnuts Roasting On An Open Fire)
TTITLE7=Rudolph The Red-Nosed Reindeer
TTITLE8=O Holy Night
TTITLE9=A Daddy's Prayer-Jesus Loves Me
EXTD=
EXTT0=
EXTT1=
EXTT2=
EXTT3=
EXTT4=
EXTT5=
EXTT6=
EXTT7=
EXTT8=
EXTT9=
PLAYORDER=
